<svg xmlns="http://www.w3.org/2000/svg" width="192" height="192" fill="#f5f0f0" viewBox="0 0 256 256"><rect width="256" height="256" fill="none"></rect><path d="M32,208V64a8,8,0,0,1,8-8H93.3a8.1,8.1,0,0,1,4.8,1.6l27.8,20.8a8.1,8.1,0,0,0,4.8,1.6H200a8,8,0,0,1,8,8v24" fill="none" stroke="#f5f0f0" stroke-linecap="round" stroke-linejoin="round" stroke-width="16"></path><path d="M32,208l30.2-90.5a8,8,0,0,1,7.6-5.5H228.9a8,8,0,0,1,7.6,10.5L208,208Z" fill="none" stroke="#f5f0f0" stroke-linecap="round" stroke-linejoin="round" stroke-width="16"></path></svg>